<svg xmlns="http://www.w3.org/2000/svg" viewBox="0 0 17.5 20" width="17.5" height="20">
    <defs>
        <style>
            .fa-secondary{opacity:.4}
        </style>
    </defs>
    <path class="fa-secondary" d="M8.75 2.5c-1.727 0 -3.125 1.398 -3.125 3.125v1.875H3.125v-1.875C3.125 2.52 5.645 0 8.75 0s5.625 2.52 5.625 5.625v1.875h-2.5v-1.875c0 -1.727 -1.398 -3.125 -3.125 -3.125"/>
    <path class="fa-primary" d="M2.5 7.5c-1.379 0 -2.5 1.121 -2.5 2.5v7.5c0 1.379 1.121 2.5 2.5 2.5h12.5c1.379 0 2.5 -1.121 2.5 -2.5V10c0 -1.379 -1.121 -2.5 -2.5 -2.5zm7.5 5v2.5c0 0.691 -0.559 1.25 -1.25 1.25s-1.25 -0.559 -1.25 -1.25v-2.5c0 -0.691 0.559 -1.25 1.25 -1.25s1.25 0.559 1.25 1.25"/>
</svg>