<?xml version="1.0" standalone="no"?>
<svg version="1.0" xmlns="http://www.w3.org/2000/svg"
 width="741.000000pt" height="371.000000pt" viewBox="0 0 741.000000 371.000000"
 preserveAspectRatio="xMidYMid meet">
<g transform="translate(0.000000,371.000000) scale(0.100000,-0.100000)"
fill="#fff" stroke="none">
<path d="M5532 2717 c-47 -15 -117 -80 -144 -135 -22 -44 -23 -60 -26 -264
l-4 -218 -2365 0 c-2172 0 -2368 -1 -2400 -16 -118 -56 -122 -226 -8 -291 l40
-23 2368 0 2367 0 0 -185 c0 -210 9 -266 53 -332 48 -71 113 -107 201 -111 49
-3 84 1 108 11 39 16 1182 701 1210 725 26 21 33 69 14 96 -15 23 -1149 710
-1222 741 -41 17 -142 18 -192 2z"/>
</g>
</svg>
